<?xml version="1.0" encoding="UTF-8"?>
<svg width="182px" height="27px" viewBox="0 0 182 27" version="1.1" xmlns="http://www.w3.org/2000/svg" xmlns:xlink="http://www.w3.org/1999/xlink">
    <!-- Generator: Sketch 40.1 (33804) - http://www.bohemiancoding.com/sketch -->
    <title>Comindware logo</title>
    <desc>Created with Sketch.</desc>
    <defs></defs>
    <g id="Page-1" stroke="none" stroke-width="1" fill="none" fill-rule="evenodd">
        <g id="xmas2018_en_3" transform="translate(-338.000000, -240.000000)">
            <g id="Group-3" transform="translate(0.000000, -122.000000)">
                <g id="Comindware-logo" transform="translate(338.344140, 362.426934)">
                    <g id="Layer_1">
                        <g id="Group">
                            <g>
                                <g id="Shape">
                                    <path d="M171.127139,10.9841803 C171.907006,11.9071344 172.297515,13.2328113 172.297515,14.9646337 L162.721399,14.9646337 C162.881519,13.2864316 163.392983,11.9767267 164.268461,11.0275329 C165.141635,10.0771982 166.314314,9.60260134 167.785348,9.60260134 C169.233342,9.60260134 170.346121,10.0635079 171.127139,10.9841803 L171.127139,10.9841803 Z M171.70196,25.8267422 C172.576286,25.6464866 173.502449,25.346441 174.482754,24.9243236 L174.482754,22.4749015 C172.555551,23.2928967 170.609916,23.700183 168.638939,23.700183 C166.765877,23.700183 165.31673,23.1491486 164.284588,22.0447981 C163.254749,20.9427293 162.711031,19.3272745 162.653434,17.1972927 L175.270684,17.1972927 L175.270684,15.4609069 C175.270684,13.0114849 174.601404,11.0389415 173.2663,9.54441758 C171.927741,8.05103453 170.112276,7.30377257 167.818754,7.30377257 C165.368568,7.30377257 163.417174,8.16283861 161.959964,9.88439325 C160.510817,11.604807 159.78394,13.9253121 159.78394,16.8516127 C159.78394,19.7516736 160.562655,22.0196992 162.128147,23.6511261 C163.694792,25.2814121 165.828194,26.0994072 168.534112,26.0994072 C169.773604,26.0994072 170.827634,26.0081386 171.70196,25.8267422 L171.70196,25.8267422 Z M154.730359,8.26551582 C153.773093,8.90439627 152.952908,9.8125192 152.275565,10.9933072 L152.143091,10.9933072 L151.827458,7.63462138 L149.537392,7.63462138 L149.537392,25.7696993 L152.310123,25.7696993 L152.310123,16.0404627 C152.310123,14.263006 152.83541,12.7810316 153.888287,11.5899759 C154.942317,10.3977793 156.207152,9.80225148 157.689705,9.80225148 C158.270285,9.80225148 158.937261,9.88553411 159.697544,10.0498177 L160.078838,7.50342271 C159.431445,7.37108319 158.703416,7.30491343 157.888991,7.30491343 C156.740502,7.30377257 155.688777,7.62435366 154.730359,8.26551582 L154.730359,8.26551582 Z M135.862657,23.0555982 C135.255582,22.5376487 134.951469,21.7824008 134.951469,20.7887135 C134.951469,19.5212203 135.43759,18.5857168 136.414439,17.9833438 C137.388984,17.3832525 138.977516,17.0432769 141.18349,16.9668394 L143.957372,16.8516127 L143.957372,18.4898847 C143.957372,20.1772136 143.465492,21.491482 142.479427,22.4258447 C141.494515,23.3636299 140.137524,23.8336634 138.411911,23.8336634 C137.317563,23.8336634 136.470884,23.5724069 135.862657,23.0555982 L135.862657,23.0555982 Z M146.730103,25.7696993 L146.730103,13.3913906 C146.730103,11.2750991 146.204816,9.73608172 145.153091,8.77662018 C144.100214,7.81829951 142.482883,7.33685745 140.297644,7.33685745 C139.218272,7.33685745 138.1389,7.47604212 137.066439,7.75098889 C135.990523,8.02707651 135.001003,8.40812307 134.09903,8.89184684 L134.951469,10.9933072 C136.878672,10.0669305 138.605437,9.60260134 140.130612,9.60260134 C141.488755,9.60260134 142.478275,9.942577 143.095718,10.6202466 C143.714312,11.2990571 144.025337,12.3497873 144.025337,13.773578 L144.025337,14.8984639 L140.916238,14.9977186 C135.001003,15.1745515 132.045113,17.0957563 132.045113,20.7567695 C132.045113,22.4669155 132.560032,23.7834656 133.58987,24.7109831 C134.619709,25.6373598 136.043513,26.0994072 137.860129,26.0994072 C139.219424,26.0994072 140.350634,25.8974754 141.26067,25.4970342 C142.168402,25.0943114 143.077287,24.3253731 143.991931,23.1879378 L144.125556,23.1879378 L144.67849,25.7696993 L146.730103,25.7696993 L146.730103,25.7696993 Z M127.337115,25.7696993 L132.401064,7.63462138 L129.529266,7.63462138 C127.39932,15.7096139 126.239312,20.1601008 126.043481,20.9860819 C125.851106,21.8154857 125.731304,22.4258447 125.685226,22.8240041 L125.553904,22.8240041 C125.331579,21.5348346 124.906512,19.9387743 124.282158,18.0426684 L121.008331,7.63462138 L118.000603,7.63462138 L114.642685,18.0426684 C114.442246,18.6267877 114.206098,19.4185431 113.933087,20.4167938 C113.658924,21.4184671 113.464245,22.2296171 113.340987,22.8582298 L113.20621,22.8582298 C113.115206,22.0322487 112.760407,20.4270615 112.146421,18.0426684 C111.527826,15.660557 110.624702,12.1923489 109.44511,7.63462138 L106.541058,7.63462138 L111.534738,25.7696993 L114.742904,25.7696993 L118.202194,15.163143 C118.535106,14.1158354 118.924463,12.624734 119.371417,10.6966841 L119.506195,10.6966841 C120.084471,13.0000763 120.477284,14.4797691 120.690394,15.1311989 L124.047161,25.7696993 L127.337115,25.7696993 L127.337115,25.7696993 Z" fill="#3698D4"></path>
                                    <path d="M93.7970941,22.0322487 C92.9423511,20.8514607 92.5126758,19.1013846 92.5126758,16.7865838 C92.5126758,14.5025862 92.9423511,12.7342564 93.8074616,11.4815944 C94.6691162,10.2289323 95.9143683,9.60260134 97.5409142,9.60260134 C99.4347112,9.60260134 100.813589,10.1536357 101.675244,11.2500002 C102.539202,12.3475056 102.971181,14.1808643 102.971181,16.7500764 L102.971181,17.3284914 C102.971181,19.6022212 102.546114,21.2484793 101.694827,22.2672654 C100.842388,23.2894741 99.4669657,23.7982968 97.5731687,23.7982968 C95.9143683,23.7994376 94.6541409,23.2118958 93.7970941,22.0322487 L93.7970941,22.0322487 Z M103.489556,25.7696993 L105.746216,25.7696993 L105.746216,0.0239580169 L102.971181,0.0239580169 L102.971181,7.40302722 L103.037994,8.67736554 L103.155492,9.98364789 L102.937775,9.98364789 C101.610735,8.1982052 99.7065702,7.30377257 97.2218255,7.30377257 C94.838452,7.30377257 92.9780614,8.13089459 91.6429575,9.78513861 C90.3032459,11.4393826 89.6374219,13.7610286 89.6374219,16.7500764 C89.6374219,19.7414059 90.3020939,22.045939 91.633742,23.668239 C92.96539,25.2893981 94.8280845,26.0994072 97.2218255,26.0994072 C99.772231,26.0994072 101.691371,25.177594 102.970029,23.338531 L103.119782,23.338531 L103.489556,25.7696993 L103.489556,25.7696993 Z M87.4210804,25.7696993 L87.4210804,13.9390024 C87.4210804,11.6230608 86.866995,9.93573186 85.7553684,8.88386083 C84.637982,7.8319898 82.9780298,7.30491343 80.7720558,7.30491343 C79.5164361,7.30491343 78.373707,7.55019789 77.3484762,8.04076681 C76.3232455,8.53133572 75.5284037,9.22269564 74.959343,10.1159874 L74.8280213,10.1159874 L74.3753071,7.63462138 L72.1197994,7.63462138 L72.1197994,25.7696993 L74.8936822,25.7696993 L74.8936822,16.2560849 C74.8936822,13.8945089 75.3383328,12.2026166 76.229938,11.1758444 C77.1203912,10.1479314 78.5223078,9.63568622 80.4391438,9.63568622 C81.8882901,9.63568622 82.952687,10.0007608 83.6300305,10.7286281 C84.3096778,11.4576364 84.6495015,12.560846 84.6495015,14.038257 L84.6495015,25.7696993 L87.4210804,25.7696993 L87.4210804,25.7696993 Z M68.5660501,7.63348052 L65.7921674,7.63348052 L65.7921674,25.7685584 L68.5660501,25.7685584 L68.5660501,7.63348052 L68.5660501,7.63348052 Z M62.8155424,25.7696993 L62.8155424,13.9390024 C62.8155424,11.6230608 62.3017751,9.93573186 61.2707846,8.88386083 C60.2397941,7.8319898 58.6881247,7.30491343 56.6169282,7.30491343 C55.2910399,7.30491343 54.1126005,7.58100105 53.0746983,8.13203544 C52.0391001,8.68421069 51.248866,9.43489522 50.7016923,10.3829482 L50.5669148,10.3829482 C49.687981,8.32940387 47.8172229,7.30605429 44.9557924,7.30605429 C43.7750491,7.30605429 42.7071964,7.55362046 41.7556901,8.04989367 C40.8041838,8.54730774 40.0646353,9.23638594 39.5416524,10.1182691 L39.4080269,10.1182691 L38.9587684,7.63348052 L36.7032608,7.63348052 L36.7032608,25.7685584 L39.4748397,25.7685584 L39.4748397,16.254944 C39.4748397,13.9047767 39.8803242,12.215166 40.6866854,11.1826896 C41.4941986,10.1524949 42.7647936,9.6334045 44.50423,9.6334045 C45.8278145,9.6334045 46.8046635,9.99505647 47.4267137,10.7195013 C48.0510677,11.4416643 48.3643966,12.5243385 48.3643966,13.9698056 L48.3643966,25.7674176 L51.1371274,25.7674176 L51.1371274,15.6423033 C51.1371274,13.6024493 51.5495236,12.0896717 52.373164,11.1085338 C53.1979564,10.1262551 54.4731591,9.6334045 56.1999242,9.6334045 C57.5142931,9.6334045 58.4830785,9.99505647 59.1051286,10.7195013 C59.7283307,11.4416643 60.0416596,12.5243385 60.0416596,13.9698056 L60.0416596,25.7674176 L62.8155424,25.7674176 L62.8155424,25.7696993 Z" fill="#F79437"></path>
                                    <path d="M22.1507439,11.4074386 C23.0734516,10.2289323 24.4454177,9.63796793 26.2597305,9.63796793 C28.0982342,9.63796793 29.4863275,10.2357775 30.4274663,11.4325375 C31.3686051,12.6292975 31.8385985,14.3793736 31.8385985,16.6861883 C31.8385985,19.0123977 31.3686051,20.7795866 30.4274663,21.9900369 C29.4863275,23.1970646 28.1086017,23.8005785 26.2931369,23.8005785 C24.4788241,23.8005785 23.1022502,23.1947829 22.1668711,21.9809101 C21.2303401,20.7670372 20.7638025,19.0032708 20.7638025,16.6861883 C20.7638025,14.3474295 21.2245804,12.5882266 22.1507439,11.4074386 M32.4502811,9.8341955 C30.9400817,8.14572574 28.9057474,7.30263172 26.3438225,7.30263172 C23.6943497,7.30263172 21.6208493,8.12861287 20.130233,9.77601174 C18.6361607,11.4245515 17.8897006,13.7268028 17.8897006,16.6850475 C17.8897006,18.5937028 18.234132,20.2582146 18.9264508,21.6831461 C19.6164656,23.105796 20.5979225,24.1964562 21.8662136,24.9574084 C23.1345046,25.7195015 24.5894107,26.1005481 26.2251722,26.1005481 C28.8746449,26.1005481 30.9550569,25.2700035 32.4583447,23.6077735 C33.9627845,21.9501069 34.7138524,19.6410104 34.7138524,16.6850475 C34.7138524,13.8066629 33.9604806,11.5215244 32.4502811,9.8341955 M17.2745621,5.03688783 L18.4783443,2.62169156 C16.5626603,1.69531491 14.322128,1.23212658 11.761355,1.23212658 C9.35609454,1.23212658 7.26416303,1.73752665 5.48901631,2.75289023 C3.7115657,3.76711294 2.35342294,5.21257996 1.41228415,7.08815042 C0.468841477,8.96486174 0,11.147323 0,13.6412385 C0,17.6239736 0.975697128,20.696304 2.93169916,22.8582298 C4.88654925,25.0201556 7.66273589,26.101689 11.261411,26.101689 C13.7426998,26.101689 15.8323274,25.7868122 17.526838,25.1593403 L17.526838,22.6916646 C15.3427509,23.3008827 13.3982684,23.6020692 11.6968461,23.6020692 C8.92296335,23.6020692 6.786106,22.7384397 5.28857794,21.0123217 C3.78874599,19.2850627 3.04113391,16.8390633 3.04113391,13.6743233 C3.04113391,10.5974295 3.81639266,8.17310633 5.37036601,6.4024948 C6.92433936,4.63188326 9.04506948,3.74543664 11.7291005,3.74543664 C13.5768198,3.74543664 15.425691,4.17668094 17.2745621,5.03688783" fill="#3698D4"></path>
                                </g>
                                <rect id="Rectangle-path" fill="#3698D4" x="65.8359413" y="1.81966842" width="2.74853996" height="2.72208706"></rect>
                            </g>
                            <path d="M175.22691,2.86583516 C175.22691,2.35929423 175.352472,1.88127475 175.61166,1.43748101 C175.868543,0.992546414 176.219887,0.641162166 176.671449,0.384469128 C177.119555,0.130057806 177.603372,0 178.122899,0 C178.635514,0 179.115875,0.126635232 179.565134,0.382187412 C180.014392,0.636598734 180.366887,0.984560408 180.628379,1.42949501 C180.885262,1.87442961 181.016584,2.35358994 181.016584,2.86583516 C181.016584,3.3666718 180.892174,3.83784613 180.643354,4.27593558 C180.393382,4.71744761 180.044343,5.06883186 179.596236,5.33465176 C179.146978,5.59818994 178.657401,5.73052947 178.124051,5.73052947 C177.593005,5.73052947 177.099972,5.59704909 176.653018,5.33579262 C176.203759,5.07111357 175.85472,4.72087018 175.603596,4.28049902 C175.350168,3.84012785 175.22691,3.37123523 175.22691,2.86583516 L175.22691,2.86583516 Z M175.628939,2.86583516 C175.628939,3.30848805 175.742981,3.71805605 175.965307,4.0991026 C176.187632,4.48243087 176.495201,4.78361737 176.879951,5.00380295 C177.267004,5.22398854 177.681704,5.33465176 178.122899,5.33465176 C178.568702,5.33465176 178.98225,5.22170682 179.364695,5.00152124 C179.747141,4.78133565 180.050103,4.48129001 180.275884,4.10480689 C180.498209,3.72718291 180.612252,3.31533319 180.612252,2.86583516 C180.612252,2.42546399 180.501665,2.01475513 180.275884,1.63484944 C180.05471,1.25722546 179.754053,0.958320675 179.370455,0.734712518 C178.992617,0.512245218 178.573309,0.400441139 178.122899,0.400441139 C177.674793,0.400441139 177.260093,0.512245218 176.878799,0.73357166 C176.497505,0.953757243 176.19224,1.25380288 175.968763,1.63028601 C175.744133,2.00676913 175.628939,2.4197597 175.628939,2.86583516 L175.628939,2.86583516 Z M179.294427,2.17333439 C179.294427,2.3764071 179.240285,2.5555218 179.130851,2.71410105 C179.020264,2.86925774 178.869359,2.9867661 178.670073,3.06206273 L179.587021,4.5657135 L178.94078,4.5657135 L178.143634,3.21721941 L177.622955,3.21721941 L177.622955,4.5657135 L177.055046,4.5657135 L177.055046,1.1693794 L178.060694,1.1693794 C178.483458,1.1693794 178.796787,1.25380288 178.998377,1.41808643 C179.19536,1.58236997 179.294427,1.83449958 179.294427,2.17333439 L179.294427,2.17333439 Z M177.622955,2.74832679 L178.039959,2.74832679 C178.245005,2.74832679 178.410885,2.69584733 178.534143,2.58860668 C178.658553,2.48478861 178.72191,2.35016737 178.72191,2.18816554 C178.72191,1.99764226 178.668921,1.86073931 178.557182,1.77745668 C178.445444,1.69645577 178.269196,1.65424402 178.033047,1.65424402 L177.622955,1.65424402 L177.622955,2.74832679 L177.622955,2.74832679 Z" id="Shape" fill="#3698D4"></path>
                        </g>
                    </g>
                </g>
            </g>
        </g>
    </g>
</svg>