<svg id="Layer_1" data-name="Layer 1" xmlns="http://www.w3.org/2000/svg" xmlns:xlink="http://www.w3.org/1999/xlink" viewBox="0 0 1024 1024"><defs><style>.cls-1{fill:#3698d4;}.cls-2{fill:#6dc5fd;}.cls-3{fill:url(#linear-gradient);}.cls-4{fill:#167bc1;}.cls-5{fill:#fff;}</style><linearGradient id="linear-gradient" x1="523.7" y1="483.12" x2="998.62" y2="958.72" gradientUnits="userSpaceOnUse"><stop offset="0" stop-color="#2993d7"/><stop offset="0.84" stop-color="#1c7cc5"/></linearGradient></defs><rect class="cls-1" width="1024" height="1024"/><polyline class="cls-2" points="0 1024 0 0 1024 0"/><polygon class="cls-3" points="713 301 470.88 312.48 348.8 603.3 387.89 721.29 435.19 768.09 693.81 1024 1024 1024 1024 609.98 713 301"/><path class="cls-4" d="M563.28,349.32q-60.85,0-94.24,45.73T435.65,522.51q0,170.06,127.63,170.06,53.55,0,129.72-26.78v90.42q-62.6,26.09-139.8,26.08-111,0-169.72-67.29T324.71,521.81q0-79.29,28.87-138.93t82.94-91.46q54.08-31.83,126.76-31.83,74.07,0,148.85,35.82l-34.78,87.64A577.85,577.85,0,0,0,620,359.4,171.3,171.3,0,0,0,563.28,349.32Z"/><path class="cls-5" d="M556.86,340.38q-60.86,0-94.24,45.73T429.23,513.56q0,170.07,127.63,170.06,53.55,0,129.72-26.77v90.42q-62.6,26.09-139.8,26.08-110.94,0-169.71-67.29T318.29,512.87q0-79.29,28.87-138.93t82.94-91.47q54.07-31.82,126.76-31.82,74.08,0,148.85,35.82l-34.78,87.64a577.85,577.85,0,0,0-57.38-23.65A171.3,171.3,0,0,0,556.86,340.38Z"/></svg>